<svg version="1.1" id="Layer_1" xmlns="http://www.w3.org/2000/svg" xmlns:xlink="http://www.w3.org/1999/xlink" x="0px" y="0px"
	 width="100%" viewBox="0 0 880 880" enable-background="new 0 0 880 880" xml:space="preserve">
<path fill="#000000" opacity="1.000000" stroke="none" 
	d="
M235.481720,783.283203 
	C230.848907,769.481445 222.813339,758.294495 211.828186,749.663147 
	C204.339340,743.778870 197.476273,737.351440 192.464203,729.531006 
	C188.846603,723.886414 185.129013,718.140381 181.805374,712.226135 
	C176.178497,702.213440 171.307907,691.867615 165.981262,681.733704 
	C163.119781,676.289795 162.901077,670.141113 160.735275,664.516296 
	C157.800964,656.895569 155.718033,648.930908 153.634262,641.091675 
	C151.846680,634.366699 149.450195,627.755249 148.308395,620.735657 
	C147.305939,614.572693 145.004028,608.444763 143.237198,602.318909 
	C142.188278,598.682190 141.702682,594.716370 140.292511,591.477722 
	C137.055511,584.043335 137.630142,575.792236 134.302963,568.527161 
	C131.383057,562.151367 132.839462,555.133728 131.122177,548.468567 
	C128.325500,537.614258 128.958557,526.362244 130.596298,515.315369 
	C131.752380,507.517334 129.157532,500.714813 126.028053,493.990967 
	C123.196930,487.908142 121.713730,481.358704 118.879028,475.241943 
	C115.395020,467.724091 112.943771,459.728088 110.036888,451.942169 
	C106.221863,441.723816 102.442902,431.491608 98.563782,421.297577 
	C95.313339,412.755646 91.855431,404.292236 88.646690,395.735046 
	C85.209457,386.568451 82.007950,377.313690 78.600266,368.135773 
	C76.954979,363.704498 74.959351,359.403107 73.320084,354.969788 
	C69.030777,343.369568 64.705856,331.778961 60.673985,320.088318 
	C57.660038,311.349243 56.080521,302.300720 56.672115,293.003265 
	C56.851002,290.191864 54.535576,288.287415 54.589840,285.433167 
	C54.714836,278.858215 57.229874,273.211884 59.570541,267.199615 
	C62.375713,259.994202 66.948395,254.838547 73.041420,251.100922 
	C77.118515,248.599884 80.894455,245.231415 86.068596,244.475800 
	C89.089485,244.034637 91.439972,241.578461 94.462944,240.493820 
	C102.452126,237.627335 110.533615,234.859360 118.252174,231.412781 
	C121.743965,229.853561 124.942474,227.699814 128.830872,226.819397 
	C132.186584,226.059586 132.726974,223.316422 132.703568,220.179733 
	C132.605270,207.013870 132.686493,193.846771 132.655518,180.680237 
	C132.643509,175.582016 134.184235,171.042526 137.201080,166.963867 
	C137.687164,166.306717 138.371735,165.607178 138.455231,164.869568 
	C139.923233,151.903381 148.421494,144.549576 159.173294,139.183670 
	C164.785355,136.382874 171.006287,135.597015 177.099091,134.206604 
	C186.927673,131.963699 196.864105,131.612411 206.263458,133.018723 
	C226.014877,135.973923 245.878922,132.453217 265.350342,135.012222 
	C285.632446,137.677765 305.789795,135.637787 325.971069,136.608353 
	C326.802979,136.648376 327.642883,136.591507 328.468689,136.678391 
	C335.752014,137.444672 338.347595,135.267868 340.678528,128.187424 
	C343.901886,118.395889 349.037415,110.201973 357.810272,103.693405 
	C365.189789,98.218513 373.040161,94.787544 381.395325,91.754051 
	C383.502716,90.988930 385.530914,90.641068 387.703949,90.645813 
	C393.703888,90.658905 399.713776,90.876083 405.701874,90.610558 
	C419.851898,89.983101 431.354645,96.086342 441.950043,104.530396 
	C444.236359,106.352478 446.599518,107.537750 449.204254,106.016678 
	C451.863586,104.463722 455.384613,104.642525 457.415924,103.253372 
	C462.099335,100.050499 467.602722,99.442719 472.551208,97.435493 
	C477.754303,95.325005 482.749664,92.216972 488.634399,91.509338 
	C492.639008,91.027786 496.179688,88.479088 499.977020,87.066231 
	C504.991821,85.200371 510.480560,84.152534 515.118958,81.167030 
	C518.705383,78.858658 523.082520,78.117737 526.954346,76.916512 
	C536.042053,74.097099 544.597107,69.917091 553.714050,67.131256 
	C559.632507,65.322762 565.762573,64.226044 571.628479,62.190350 
	C575.244629,60.935432 579.473022,60.878262 582.971680,62.078396 
	C588.413940,63.945202 593.972900,63.915009 599.465088,64.817207 
	C607.147156,66.079124 614.485046,68.531403 621.340576,72.683876 
	C632.195740,79.258904 637.755249,89.799683 642.877380,100.483246 
	C646.785706,108.635078 649.301880,117.462158 652.317383,126.031067 
	C653.939575,130.640778 655.093140,135.422516 656.846436,139.977173 
	C659.103210,145.839737 663.680115,148.637390 669.939636,148.634125 
	C677.713196,148.630066 685.395386,148.603928 692.996338,146.051834 
	C697.433716,144.561905 702.402954,146.941269 706.211060,148.740585 
	C711.185181,151.090866 716.411682,150.725677 721.384094,152.349686 
	C728.177612,154.568481 734.344666,157.437088 740.138489,161.538834 
	C749.895142,168.446075 754.881104,178.697617 759.504639,189.057983 
	C765.052429,201.489502 769.253418,214.091721 768.583923,228.334061 
	C767.622437,248.788788 768.467957,269.323486 768.294434,289.821960 
	C768.177002,303.701324 767.331482,317.691071 765.869995,331.358948 
	C763.096863,357.292480 765.462585,383.133575 764.354309,408.979187 
	C764.218750,412.139984 764.476807,415.318939 764.312622,418.476990 
	C763.854980,427.276947 766.046387,435.601990 767.940002,444.107361 
	C769.936462,453.074493 773.607666,461.410278 776.005310,470.156494 
	C780.267578,485.704834 786.615234,500.483978 791.704712,515.699036 
	C795.885315,528.197144 800.627625,540.504089 804.692871,553.048645 
	C806.671265,559.153748 809.927307,565.308289 811.256409,571.304077 
	C812.935730,578.879822 816.908569,586.061340 816.375244,594.169434 
	C816.102356,598.318054 816.237366,602.501892 816.344849,606.665771 
	C816.744202,622.136230 810.069519,634.266785 798.564453,643.995178 
	C791.946106,649.591431 783.649414,652.031860 775.819580,655.310608 
	C768.894104,658.210632 761.854675,660.874268 755.097961,664.125244 
	C752.108215,665.563721 750.975525,668.532593 750.135742,672.147522 
	C747.501526,683.485779 749.539490,694.998718 748.061768,706.223511 
	C746.774963,715.997559 743.737671,725.563416 739.993286,734.891541 
	C737.340881,741.499329 733.471741,747.306213 730.250549,753.517883 
	C727.941772,757.970154 723.932983,761.245667 720.116577,764.306946 
	C712.835449,770.147217 704.818054,775.024475 696.101929,778.445923 
	C692.512512,779.854980 688.320251,780.315979 684.863831,781.648987 
	C676.235596,784.976379 667.071838,781.536194 658.503174,784.979187 
	C655.289001,786.270630 650.949646,786.290527 647.377869,784.199463 
	C646.004700,783.395630 644.511902,783.409485 643.015198,783.397217 
	C640.348755,783.375366 637.674622,783.248047 635.016541,783.395691 
	C607.769592,784.909241 580.592102,782.092957 553.478394,780.722168 
	C536.420410,779.859680 519.217590,781.471619 502.417664,779.019104 
	C488.127045,776.932861 473.968292,777.404236 459.795715,777.645081 
	C451.944336,777.778625 443.943390,779.251831 436.059235,780.822266 
	C431.309021,781.768555 426.553650,783.274109 421.576508,783.455261 
	C416.278778,783.648254 411.605713,786.461548 406.571991,787.865906 
	C396.685974,790.623962 386.972626,794.018311 377.240082,797.304077 
	C368.578735,800.228210 360.026123,803.475708 351.355591,806.371094 
	C342.083221,809.467407 333.272278,813.721619 323.542847,815.783813 
	C317.937592,816.971863 312.214569,818.747253 306.695679,820.773621 
	C304.897278,821.433960 302.770660,821.231201 300.789886,821.356262 
	C298.011292,821.531921 295.102081,820.833862 292.620117,822.831238 
	C292.159698,823.201782 291.307037,823.379089 290.719055,823.253601 
	C279.315521,820.819397 267.578857,820.415344 257.183075,813.427002 
	C246.048859,805.942322 241.475525,794.514404 235.481720,783.283203 
M131.865463,255.426270 
	C113.853012,262.248230 95.840561,269.070160 77.734787,275.927460 
	C79.981277,280.647766 82.350830,284.872467 84.064461,289.348297 
	C96.212997,321.079132 108.234337,352.858643 120.282196,384.627960 
	C132.980621,418.112732 145.603516,451.626434 158.421387,485.065399 
	C160.228165,489.778900 161.785721,494.436493 162.140015,499.483612 
	C163.236221,515.099792 165.385269,530.601135 167.244293,546.135376 
	C171.710526,583.455688 180.361282,619.847839 191.040054,655.827087 
	C192.448715,660.573181 195.043488,662.537354 199.470108,663.555969 
	C211.308487,666.280212 223.100510,669.209106 234.885941,672.156677 
	C236.502426,672.560974 238.664444,672.546631 239.080688,674.930969 
	C232.482529,678.996643 232.200546,679.356140 234.975174,686.836365 
	C244.995239,713.849792 255.238998,740.780640 265.166077,767.827881 
	C266.888428,772.520508 269.212860,773.007141 273.441864,771.354858 
	C282.742462,767.720947 292.144928,764.339661 301.560150,761.008911 
	C345.354797,745.516052 389.176300,730.099060 432.957153,714.567322 
	C436.114929,713.447021 439.576660,712.605713 442.274933,709.619080 
	C438.770264,706.911316 434.630951,707.584473 431.169922,706.112244 
	C419.934479,701.332764 408.395050,701.512207 397.093781,705.481140 
	C376.633179,712.666931 356.201843,712.019226 335.774933,705.918152 
	C331.168671,704.542358 326.765045,703.811584 322.056335,704.498169 
	C315.351501,705.475769 308.684387,704.900818 302.302277,702.841187 
	C295.340515,700.594421 295.084198,697.046387 296.417786,690.048462 
	C297.399048,684.899414 302.288635,686.178894 305.990265,686.704895 
	C325.249115,689.441956 344.330719,693.279785 363.824951,694.523621 
	C390.171997,696.204712 416.130341,701.333557 442.577759,702.899841 
	C486.465576,705.499023 530.377380,707.506897 574.277161,709.795349 
	C594.066833,710.826965 613.864868,711.702759 633.661987,712.584412 
	C645.974304,713.132690 658.296082,713.478821 670.605225,714.084961 
	C674.879578,714.295471 676.788025,713.132263 677.093323,708.349060 
	C677.603333,700.359558 677.604126,692.367676 677.980103,684.383789 
	C679.593445,650.124573 681.177063,615.863892 682.808899,581.605591 
	C683.838745,559.984009 684.876038,538.362305 686.060242,516.748840 
	C686.249451,513.294678 686.508240,509.724121 688.569336,506.489410 
	C690.283142,545.271301 690.945618,584.009644 688.422302,623.122864 
	C690.291321,622.892029 691.319031,622.944275 692.216919,622.627991 
	C715.927551,614.278076 739.620178,605.877197 763.329651,597.524109 
	C766.445862,596.426147 766.783875,594.429260 765.786133,591.626892 
	C763.385559,584.884033 761.136536,578.087219 758.738098,571.343628 
	C739.317993,516.741821 719.890015,462.142792 700.415894,407.560272 
	C699.080139,403.816498 698.204529,399.691650 695.363708,396.793793 
	C693.524536,394.917755 692.921082,393.044556 692.844971,390.619537 
	C692.326599,374.112274 693.947510,357.691895 694.705811,341.234222 
	C696.576050,300.643646 698.197571,260.041595 700.069946,219.451126 
	C700.660400,206.652039 701.566040,193.861191 702.645264,181.093460 
	C703.226562,174.215042 702.752930,173.475327 695.582275,173.291229 
	C670.603210,172.649963 645.626648,171.914291 620.647461,171.279617 
	C617.697205,171.204666 615.797791,170.491318 614.682373,167.295609 
	C605.901123,142.135574 596.908569,117.049355 588.023743,91.925308 
	C585.533325,84.883026 585.549683,84.776955 578.539734,87.413841 
	C559.521667,94.567757 540.530762,101.793724 521.525940,108.983040 
	C487.410828,121.888428 453.288208,134.774048 419.194214,147.734985 
	C417.656677,148.319489 415.489380,148.400024 415.007690,150.984314 
	C419.898560,153.400986 425.040161,155.412338 428.998474,159.375168 
	C432.309601,162.690018 434.945038,166.304688 433.880585,171.287445 
	C431.966858,180.245438 430.038361,189.207306 427.772156,198.079697 
	C426.766785,202.015717 425.858612,205.618500 427.322662,209.738693 
	C428.860413,214.066284 424.917114,215.877029 422.189667,217.821915 
	C419.966522,219.407181 416.693024,219.659378 415.639435,216.938202 
	C413.168945,210.557693 408.281708,210.980865 402.955597,210.917282 
	C382.671967,210.675156 369.481659,192.064163 375.545624,172.764328 
	C376.479706,169.791306 379.020935,167.418869 378.812592,164.111526 
	C377.673340,162.850449 376.242432,163.167191 374.977203,163.120132 
	C332.032806,161.522827 289.076813,160.193985 246.145569,158.302933 
	C220.210144,157.160492 194.180008,158.016800 168.340393,154.654846 
	C159.701828,153.530914 158.525726,154.784302 158.384277,163.640747 
	C157.974548,189.295807 157.515305,214.950424 157.250000,240.607025 
	C157.210358,244.439484 156.272003,246.767990 152.322723,248.020493 
	C145.661804,250.132996 139.165176,252.763489 131.865463,255.426270 
M696.956177,763.971252 
	C706.826599,759.009155 716.011841,753.491821 721.961304,743.446228 
	C728.633423,732.180664 731.549377,719.945129 733.312866,707.276001 
	C733.523499,705.762939 733.490051,703.741760 731.870422,701.922913 
	C730.498901,705.263062 728.720703,707.781860 728.183228,711.042236 
	C727.101257,717.605957 727.718262,725.265137 718.915955,727.687012 
	C718.011475,727.935974 717.480164,729.445618 716.713196,730.315186 
	C715.842834,731.301941 715.076172,732.671753 713.963989,733.106506 
	C706.324219,736.093018 703.228333,742.234985 701.859497,749.677979 
	C705.281555,752.143860 705.534363,754.712341 702.157349,756.716003 
	C698.949707,758.619141 695.969543,760.921997 691.926941,761.535217 
	C688.763733,762.015076 685.833008,764.027649 682.799011,765.359192 
	C687.568420,766.163940 692.051147,766.110474 696.956177,763.971252 
M751.977722,321.201294 
	C753.434509,319.819916 753.641357,318.035919 753.634521,316.165283 
	C753.602478,307.368805 753.628601,298.571747 753.526489,289.776154 
	C753.503662,287.809631 753.047974,285.848114 752.791565,283.884308 
	C752.361938,283.930664 751.932373,283.977051 751.502747,284.023407 
	C749.618530,297.456818 745.690125,310.808868 749.176697,324.455994 
	C749.682678,324.499969 750.188660,324.543945 750.694641,324.587952 
	C751.015747,323.670441 751.336853,322.752960 751.977722,321.201294 
M390.506744,187.607056 
	C390.739380,188.208389 390.862915,188.886887 391.224060,189.397278 
	C392.565491,191.293030 394.321014,192.361664 396.728729,191.650757 
	C397.772644,191.342560 398.476288,190.571533 398.241394,189.443909 
	C397.700562,186.848038 395.270325,187.269409 393.507141,186.666534 
	C392.567474,186.345261 391.577667,186.185715 390.506744,187.607056 
M673.281494,767.260681 
	C669.390564,766.018494 665.824585,766.849976 661.444641,768.579834 
	C667.314575,770.763855 670.143311,770.458435 673.281494,767.260681 
z"/>
</svg>